name C:\Users\u0150099\Documents\master_thesis\3dpredictsim\Results\debug\Fal_s1_mtjc1_sc_cspx10_oy_MTc2_MTPm_k1_d01_MTJm_nl_MG_exp5_table_d01_PF_Natali2010_ls146_ig21.mot
datacolumns 128
datarows 4
range 1.06669062 1.09869134
endheader
time	pelvis_tilt	pelvis_list	pelvis_rotation	pelvis_tx	pelvis_ty	pelvis_tz	hip_flexion_l	hip_adduction_l	hip_rotation_l	hip_flexion_r	hip_adduction_r	hip_rotation_r	knee_angle_l	knee_angle_r	ankle_angle_l	ankle_angle_r	subtalar_angle_l	subtalar_angle_r	mtj_angle_l	mtj_angle_r	mtp_angle_l	mtp_angle_r	lumbar_extension	lumbar_bending	lumbar_rotation	arm_flex_l	arm_add_l	arm_rot_l	arm_flex_r	arm_add_r	arm_rot_r	elbow_flex_l	elbow_flex_r	pro_sup_l	pro_sup_r	glut_med1_l/activation	glut_med2_l/activation	glut_med3_l/activation	glut_min1_l/activation	glut_min2_l/activation	glut_min3_l/activation	semimem_l/activation	semiten_l/activation	bifemlh_l/activation	bifemsh_l/activation	sar_l/activation	add_long_l/activation	add_brev_l/activation	add_mag1_l/activation	add_mag2_l/activation	add_mag3_l/activation	tfl_l/activation	pect_l/activation	grac_l/activation	glut_max1_l/activation	glut_max2_l/activation	glut_max3_l/activation	iliacus_l/activation	psoas_l/activation	quad_fem_l/activation	gem_l/activation	peri_l/activation	rect_fem_l/activation	vas_med_l/activation	vas_int_l/activation	vas_lat_l/activation	med_gas_l/activation	lat_gas_l/activation	soleus_l/activation	tib_post_l/activation	flex_dig_l/activation	flex_hal_l/activation	tib_ant_l/activation	per_brev_l/activation	per_long_l/activation	per_tert_l/activation	ext_dig_l/activation	ext_hal_l/activation	ercspn_l/activation	intobl_l/activation	extobl_l/activation	glut_med1_r/activation	glut_med2_r/activation	glut_med3_r/activation	glut_min1_r/activation	glut_min2_r/activation	glut_min3_r/activation	semimem_r/activation	semiten_r/activation	bifemlh_r/activation	bifemsh_r/activation	sar_r/activation	add_long_r/activation	add_brev_r/activation	add_mag1_r/activation	add_mag2_r/activation	add_mag3_r/activation	tfl_r/activation	pect_r/activation	grac_r/activation	glut_max1_r/activation	glut_max2_r/activation	glut_max3_r/activation	iliacus_r/activation	psoas_r/activation	quad_fem_r/activation	gem_r/activation	peri_r/activation	rect_fem_r/activation	vas_med_r/activation	vas_int_r/activation	vas_lat_r/activation	med_gas_r/activation	lat_gas_r/activation	soleus_r/activation	tib_post_r/activation	flex_dig_r/activation	flex_hal_r/activation	tib_ant_r/activation	per_brev_r/activation	per_long_r/activation	per_tert_r/activation	ext_dig_r/activation	ext_hal_r/activation	ercspn_r/activation	intobl_r/activation	extobl_r/activation	
          1.06669062	         -2.92734696	         -0.42525985	          1.92227488	          1.41869852	          0.91069595	         -0.00187324	        -21.47363336	          2.05145098	         12.78181131	         29.02331961	          2.78816186	         -1.12243669	         -1.34292175	        -11.71149080	         -3.91973813	          8.54996921	          0.65069230	         -2.07310088	          4.00318461	          2.89834423	         19.24613340	         -1.91370068	         -3.85614291	         -0.01806552	         -1.92402726	          4.27079482	        -13.83836512	         19.37750930	         -2.80375148	        -13.47635038	          8.44753514	         29.37131594	         25.74045255	         86.51662706	         86.51662706	          0.49996587	          0.08168921	          0.05000031	          0.68453457	          0.24130022	          0.08169097	          0.05888842	          0.05000588	          0.05000116	          0.06161071	          0.15717670	          0.05000027	          0.05000052	          0.05000091	          0.05000358	          0.05000604	          0.63892221	          0.05000141	          0.05000106	          0.05000988	          0.05000713	          0.05000505	          0.60558854	          0.92771086	          0.05000025	          0.05000150	          0.05000093	          0.24369215	          0.05000155	          0.05000150	          0.05000135	          0.48604036	          0.58281095	          0.35843860	          0.35782555	          0.46150680	          0.36427002	          0.12487838	          0.05000013	          0.07863275	          0.05000031	          0.05000239	          0.23130104	          0.05000002	          0.05000009	          0.05000011	          0.06260804	          0.05000087	          0.05888897	          0.05000039	          0.05000058	          0.05000265	          0.30598778	          0.06935902	          0.31085217	          0.06935873	          0.05000210	          0.09373442	          0.17015502	          0.15651180	          0.12516320	          0.17407617	          0.05889585	          0.05001738	          0.08570417	          0.05888970	          0.05888944	          0.14803749	          0.05002549	          0.09621252	          0.13643876	          0.05000146	          0.05000055	          0.05000008	          0.05000020	          0.05000018	          0.05000016	          0.05888901	          0.05888854	          0.05043995	          0.05578803	          0.06823836	          0.06534414	          0.27352882	          0.08683336	          0.18463730	          0.20491528	          0.49747999	          0.33225547	          0.05851669	          0.08432585	          0.11330498	
          1.07735752	         -2.92980404	         -0.62656458	          2.25258966	          1.43488693	          0.90924845	         -0.00171439	        -21.45082669	          1.66248674	         12.90091200	         29.00499476	          3.20966484	         -0.95618808	         -3.15144545	        -12.64119255	         -3.85570484	          7.85349923	          1.93724045	         -2.17747875	          3.29430903	          2.75705563	         20.61711306	         -1.56557490	         -3.74799698	          0.29385906	         -2.02352957	          4.03648713	        -13.79622108	         19.36098862	         -3.20007417	        -13.45368979	          8.05733642	         30.65218925	         24.53455267	         86.51662706	         86.51662706	          0.42455042	          0.06935863	          0.05000189	          0.58121084	          0.20487700	          0.06936015	          0.05000158	          0.05000031	          0.05000034	          0.05231097	          0.13345250	          0.05000018	          0.05000018	          0.05000030	          0.05000102	          0.05000074	          0.54247986	          0.05000104	          0.05000048	          0.05000827	          0.05000263	          0.05000121	          0.51417778	          0.81047162	          0.05000018	          0.05000156	          0.05000209	          0.32525689	          0.10610378	          0.10666288	          0.08640032	          0.42448978	          0.49483818	          0.32271964	          0.30381316	          0.39184452	          0.30928498	          0.13917550	          0.05000010	          0.06676345	          0.05000027	          0.05000011	          0.19638703	          0.05000020	          0.06332294	          0.05000248	          0.05888920	          0.05888870	          0.05000027	          0.06216778	          0.05889032	          0.05002126	          0.25980012	          0.05888960	          0.26393029	          0.05888935	          0.05001159	          0.13865998	          0.15643172	          0.13288936	          0.10627585	          0.20158461	          0.05000623	          0.08169360	          0.07276767	          0.05000104	          0.05000049	          0.21164791	          0.07138105	          0.08169079	          0.40163076	          0.13347141	          0.08168923	          0.08169295	          0.05000137	          0.05000154	          0.05000171	          0.05000004	          0.05000007	          0.05000000	          0.05000021	          0.05793906	          0.05548340	          0.31881720	          0.21174364	          0.15676739	          0.17398540	          0.54736123	          0.32831873	          0.05000011	          0.07159720	          0.09620205	
          1.08802443	         -2.93017639	         -0.83980535	          2.57716154	          1.45147252	          0.90799673	         -0.00154838	        -21.36867231	          1.25198097	         12.94011194	         28.93830024	          3.58705247	         -0.73003038	         -5.02604410	        -14.11125052	         -3.90756300	          6.99318306	          3.19069366	         -2.25430540	          2.16619152	          2.56453514	         22.22508851	         -1.15849425	         -3.61042275	          0.61801981	         -2.11261803	          3.70187801	        -13.73350162	         19.21193193	         -3.65755121	        -13.45077889	          7.84580099	         31.98084838	         23.37175954	         86.51662706	         86.51662706	          0.36046654	          0.05888926	          0.05000020	          0.49347948	          0.17395166	          0.05889057	          0.05000392	          0.05000103	          0.05000082	          0.05000031	          0.11330862	          0.06936087	          0.05888990	          0.05888963	          0.05888887	          0.05888738	          0.46059503	          0.15941579	          0.05878342	          0.05000699	          0.05000565	          0.05001411	          0.43656480	          0.74212714	          0.05000680	          0.05000460	          0.05000014	          0.27760012	          0.16589475	          0.16792409	          0.13919518	          0.36041476	          0.42014485	          0.32830470	          0.25795371	          0.33269720	          0.26259963	          0.21317620	          0.05000020	          0.06565359	          0.05000034	          0.05000005	          0.16674316	          0.05398865	          0.05888914	          0.05888905	          0.05000026	          0.05000026	          0.05006854	          0.05278389	          0.05000123	          0.05000059	          0.22058429	          0.05000049	          0.22409104	          0.05000028	          0.06936454	          0.11773040	          0.13281995	          0.11283186	          0.09023470	          0.22677739	          0.05108517	          0.06936989	          0.06178384	          0.05000184	          0.17780222	          0.22674455	          0.06936022	          0.06936114	          0.35545004	          0.11332477	          0.06935893	          0.06936182	          0.06671488	          0.06258088	          0.05889032	          0.06936041	          0.08168901	          0.07158358	          0.07250975	          0.05000010	          0.05000021	          0.34018799	          0.21588126	          0.16198546	          0.32727983	          0.58165047	          0.28148248	          0.05000005	          0.06078990	          0.08168074	
          1.09869134	         -2.92893965	         -1.05763545	          2.89422745	          1.46841833	          0.90696121	         -0.00137344	        -21.25065410	          0.82433874	         12.88858427	         28.75849721	          3.90404065	         -0.48280356	         -6.90980094	        -15.59438212	         -4.11473771	          6.02249989	          4.38193675	         -2.35980047	          0.65135302	          2.80704384	         24.00222693	         -0.64639565	         -3.44401793	          0.94262806	         -2.19438986	          3.27625773	        -13.66680008	         19.00768630	         -4.17122463	        -13.45847466	          7.77545675	         33.35074940	         22.26185210	         86.51662706	         86.51662706	          0.35321120	          0.05000029	          0.05000005	          0.47344173	          0.14769441	          0.05000144	          0.05000193	          0.05000017	          0.05000013	          0.05000092	          0.09620545	          0.05889119	          0.05000083	          0.05000071	          0.05000124	          0.05000067	          0.47145963	          0.13535304	          0.05000033	          0.05000120	          0.05000067	          0.05000055	          0.37066712	          0.70286301	          0.05000006	          0.05000038	          0.05000013	          0.26286784	          0.14085434	          0.14257736	          0.11818503	          0.30601152	          0.35672609	          0.30937068	          0.21901657	          0.28247788	          0.22296125	          0.37552470	          0.11731632	          0.05574360	          0.44481052	          0.24407053	          0.14157392	          0.09287428	          0.05000006	          0.05000017	          0.31695280	          0.25580280	          0.18359373	          0.25451388	          0.15775571	          0.09342802	          0.18728794	          0.12225887	          0.19026538	          0.08918007	          0.05889475	          0.09995982	          0.11277275	          0.09580190	          0.07664950	          0.26709117	          0.05000086	          0.05890181	          0.19397397	          0.23407072	          0.25910747	          0.28958215	          0.05889076	          0.05889151	          0.30179644	          0.09621917	          0.05889294	          0.05889193	          0.05664455	          0.05313456	          0.05000108	          0.05889072	          0.06935837	          0.06077831	          0.06156508	          0.07716330	          0.05888711	          0.42821388	          0.18329503	          0.19218718	          0.27787824	          0.69342803	          0.58009094	          0.06914301	          0.08536392	          0.06935135	
